<svg xmlns="http://www.w3.org/2000/svg" width="960" height="760" viewBox="0 0 960 760" fill="none">
  <title>Smart DB Parts Icon Pack</title>
  <desc>Preview board for the Smart DB custom monoline icon set.</desc>
  <rect width="960" height="760" fill="#f6f1e7"/>
  <g stroke="#e7ddcd">
    <path d="M0 80H960M0 160H960M0 240H960M0 320H960M0 400H960M0 480H960M0 560H960M0 640H960"/>
    <path d="M80 0V760M160 0V760M240 0V760M320 0V760M400 0V760M480 0V760M560 0V760M640 0V760M720 0V760M800 0V760M880 0V760"/>
  </g>
  <text x="72" y="84" fill="#1a1f2c" font-family="'FrauncesVariable', 'Fraunces', serif" font-size="44" font-weight="600">Smart DB Icon Pack</text>
  <text x="72" y="118" fill="#5c6270" font-family="'IBM Plex Sans', sans-serif" font-size="18">Monoline inventory and parts symbols for decorative use, empty states, and brand surfaces.</text>
  <g stroke="#c47214" stroke-width="1.7" stroke-linecap="round" stroke-linejoin="round">
    <g transform="translate(70 180)">
      <rect x="0" y="0" width="170" height="150" rx="18" stroke="#d8c8ae"/>
      <g transform="translate(57 40)">
        <path d="M7 4H5a1 1 0 0 0-1 1v2M17 4h2a1 1 0 0 1 1 1v2M7 20H5a1 1 0 0 1-1-1v-2M17 20h2a1 1 0 0 0 1-1v-2M7 12h10"/>
      </g>
      <text x="24" y="116" fill="#1a1f2c" font-family="'IBM Plex Mono', monospace" font-size="15">scan</text>
    </g>
    <g transform="translate(260 180)">
      <rect x="0" y="0" width="170" height="150" rx="18" stroke="#d8c8ae"/>
      <g transform="translate(57 40)">
        <rect x="4" y="4" width="6" height="6" rx="1"/>
        <rect x="14" y="4" width="6" height="6" rx="1"/>
        <rect x="4" y="14" width="6" height="6" rx="1"/>
        <path d="M15 14h2v2h-2zM18 16h2v4h-4"/>
      </g>
      <text x="24" y="116" fill="#1a1f2c" font-family="'IBM Plex Mono', monospace" font-size="15">qr</text>
    </g>
    <g transform="translate(450 180)">
      <rect x="0" y="0" width="170" height="150" rx="18" stroke="#d8c8ae"/>
      <g transform="translate(57 40)">
        <rect x="4" y="6" width="16" height="12" rx="2"/>
        <path d="M4 10h16M8 6v12"/>
      </g>
      <text x="24" y="116" fill="#1a1f2c" font-family="'IBM Plex Mono', monospace" font-size="15">inventory</text>
    </g>
    <g transform="translate(640 180)">
      <rect x="0" y="0" width="170" height="150" rx="18" stroke="#d8c8ae"/>
      <g transform="translate(57 40)">
        <path d="M12 20s5-4.7 5-9a5 5 0 1 0-10 0c0 4.3 5 9 5 9Z"/>
        <circle cx="12" cy="11" r="1.8"/>
      </g>
      <text x="24" y="116" fill="#1a1f2c" font-family="'IBM Plex Mono', monospace" font-size="15">location</text>
    </g>
    <g transform="translate(70 360)">
      <rect x="0" y="0" width="170" height="150" rx="18" stroke="#d8c8ae"/>
      <g transform="translate(57 40)">
        <path d="M18 8a7 7 0 0 0-11.5-2M6 16a7 7 0 0 0 11.5 2"/>
        <path d="M18 4v4h-4M6 20v-4h4"/>
      </g>
      <text x="24" y="116" fill="#1a1f2c" font-family="'IBM Plex Mono', monospace" font-size="15">sync</text>
    </g>
    <g transform="translate(260 360)">
      <rect x="0" y="0" width="170" height="150" rx="18" stroke="#d8c8ae"/>
      <g transform="translate(57 40)">
        <path d="M4 14h4l2-5 4 9 2-4h4"/>
      </g>
      <text x="24" y="116" fill="#1a1f2c" font-family="'IBM Plex Mono', monospace" font-size="15">activity</text>
    </g>
    <g transform="translate(450 360)">
      <rect x="0" y="0" width="170" height="150" rx="18" stroke="#d8c8ae"/>
      <g transform="translate(57 40)">
        <rect x="4" y="5" width="8" height="6" rx="1"/>
        <rect x="12" y="13" width="8" height="6" rx="1"/>
        <path d="M12 8h3a2 2 0 0 1 2 2v3"/>
      </g>
      <text x="24" y="116" fill="#1a1f2c" font-family="'IBM Plex Mono', monospace" font-size="15">batch</text>
    </g>
    <g transform="translate(640 360)">
      <rect x="0" y="0" width="170" height="150" rx="18" stroke="#d8c8ae"/>
      <g transform="translate(57 40)">
        <path d="M6 7h5a3 3 0 0 1 3 3v7"/>
        <path d="m9 4-3 3 3 3M15 14l3 3-3 3"/>
      </g>
      <text x="24" y="116" fill="#1a1f2c" font-family="'IBM Plex Mono', monospace" font-size="15">merge</text>
    </g>
    <g transform="translate(70 540)">
      <rect x="0" y="0" width="170" height="150" rx="18" stroke="#d8c8ae"/>
      <g transform="translate(57 40)">
        <rect x="7" y="7" width="10" height="10" rx="1.5"/>
        <path d="M7 9H4M7 12H4M7 15H4M20 9h-3M20 12h-3M20 15h-3M9 7V4M12 7V4M15 7V4M9 20v-3M12 20v-3M15 20v-3"/>
      </g>
      <text x="24" y="116" fill="#1a1f2c" font-family="'IBM Plex Mono', monospace" font-size="15">chip</text>
    </g>
    <g transform="translate(260 540)">
      <rect x="0" y="0" width="170" height="150" rx="18" stroke="#d8c8ae"/>
      <g transform="translate(57 40)">
        <path d="M3 12h4l2-4 3 8 3-8 2 4h4"/>
      </g>
      <text x="24" y="116" fill="#1a1f2c" font-family="'IBM Plex Mono', monospace" font-size="15">resistor</text>
    </g>
    <g transform="translate(450 540)">
      <rect x="0" y="0" width="170" height="150" rx="18" stroke="#d8c8ae"/>
      <g transform="translate(57 40)">
        <circle cx="12" cy="12" r="7"/>
        <circle cx="12" cy="12" r="2.5"/>
        <path d="M7 7 17 17"/>
      </g>
      <text x="24" y="116" fill="#1a1f2c" font-family="'IBM Plex Mono', monospace" font-size="15">bearing</text>
    </g>
    <g transform="translate(640 540)">
      <rect x="0" y="0" width="170" height="150" rx="18" stroke="#d8c8ae"/>
      <g transform="translate(57 40)">
        <rect x="7" y="4" width="10" height="16"/>
        <ellipse cx="12" cy="12" rx="3.5" ry="8"/>
      </g>
      <text x="24" y="116" fill="#1a1f2c" font-family="'IBM Plex Mono', monospace" font-size="15">spool</text>
    </g>
  </g>
</svg>
