<svg xmlns="http://www.w3.org/2000/svg">
  <defs>
    <symbol id="icon-scan" viewBox="0 0 24 24" fill="none">
      <path d="M7 4H5a1 1 0 0 0-1 1v2M17 4h2a1 1 0 0 1 1 1v2M7 20H5a1 1 0 0 1-1-1v-2M17 20h2a1 1 0 0 0 1-1v-2M7 12h10"/>
    </symbol>
    <symbol id="icon-qr" viewBox="0 0 24 24" fill="none">
      <rect x="4" y="4" width="6" height="6" rx="1"/>
      <rect x="14" y="4" width="6" height="6" rx="1"/>
      <rect x="4" y="14" width="6" height="6" rx="1"/>
      <path d="M15 14h2v2h-2zM18 16h2v4h-4"/>
    </symbol>
    <symbol id="icon-inventory" viewBox="0 0 24 24" fill="none">
      <rect x="4" y="6" width="16" height="12" rx="2"/>
      <path d="M4 10h16M8 6v12"/>
    </symbol>
    <symbol id="icon-location" viewBox="0 0 24 24" fill="none">
      <path d="M12 20s5-4.7 5-9a5 5 0 1 0-10 0c0 4.3 5 9 5 9Z"/>
      <circle cx="12" cy="11" r="1.8"/>
    </symbol>
    <symbol id="icon-sync" viewBox="0 0 24 24" fill="none">
      <path d="M18 8a7 7 0 0 0-11.5-2M6 16a7 7 0 0 0 11.5 2"/>
      <path d="M18 4v4h-4M6 20v-4h4"/>
    </symbol>
    <symbol id="icon-activity" viewBox="0 0 24 24" fill="none">
      <path d="M4 14h4l2-5 4 9 2-4h4"/>
    </symbol>
    <symbol id="icon-batch" viewBox="0 0 24 24" fill="none">
      <rect x="4" y="5" width="8" height="6" rx="1"/>
      <rect x="12" y="13" width="8" height="6" rx="1"/>
      <path d="M12 8h3a2 2 0 0 1 2 2v3"/>
    </symbol>
    <symbol id="icon-merge" viewBox="0 0 24 24" fill="none">
      <path d="M6 7h5a3 3 0 0 1 3 3v7"/>
      <path d="m9 4-3 3 3 3M15 14l3 3-3 3"/>
    </symbol>
    <symbol id="icon-chip" viewBox="0 0 24 24" fill="none">
      <rect x="7" y="7" width="10" height="10" rx="1.5"/>
      <path d="M7 9H4M7 12H4M7 15H4M20 9h-3M20 12h-3M20 15h-3M9 7V4M12 7V4M15 7V4M9 20v-3M12 20v-3M15 20v-3"/>
    </symbol>
    <symbol id="icon-resistor" viewBox="0 0 24 24" fill="none">
      <path d="M3 12h4l2-4 3 8 3-8 2 4h4"/>
    </symbol>
    <symbol id="icon-bearing" viewBox="0 0 24 24" fill="none">
      <circle cx="12" cy="12" r="7"/>
      <circle cx="12" cy="12" r="2.5"/>
      <path d="M7 7 17 17"/>
    </symbol>
    <symbol id="icon-spool" viewBox="0 0 24 24" fill="none">
      <rect x="7" y="4" width="10" height="16"/>
      <ellipse cx="12" cy="12" rx="3.5" ry="8"/>
    </symbol>
    <symbol id="icon-connector" viewBox="0 0 24 24" fill="none">
      <path d="M8 7h6a4 4 0 1 1 0 8H8"/>
      <path d="M8 10H4M8 14H4"/>
    </symbol>
    <symbol id="icon-capacitor" viewBox="0 0 24 24" fill="none">
      <path d="M12 4v16M16 4v16M8 12h12"/>
    </symbol>
    <symbol id="icon-pcb" viewBox="0 0 24 24" fill="none">
      <rect x="5" y="6" width="14" height="12" rx="2"/>
      <circle cx="9" cy="10" r="1.5"/>
      <path d="M11 10h4M11 14h6M9 18v2M13 18v2M17 18v2M9 4v2M13 4v2M17 4v2"/>
    </symbol>
    <symbol id="icon-actuator" viewBox="0 0 24 24" fill="none">
      <circle cx="6" cy="12" r="2"/>
      <path d="M8 12h4l2-3h4M14 12h4l2 3"/>
      <rect x="10" y="10.5" width="4" height="3" rx="0.5"/>
    </symbol>
  </defs>
</svg>
