<svg xmlns="http://www.w3.org/2000/svg" width="360" height="320" viewBox="0 0 360 320" fill="none">
  <title>Smart DB Parts Pattern Dark</title>
  <desc>Subtle repeating line-art tile of makerspace parts and inventory motifs for dark backgrounds.</desc>
  <g stroke="#d6b890" stroke-width="1.5" stroke-linecap="round" stroke-linejoin="round" opacity="0.14">
    <g transform="translate(14 18)">
      <polyline points="0 16 10 16 15 8 23 24 31 8 39 24 47 8 52 16 62 16"/>
    </g>
    <g transform="translate(114 14)">
      <rect x="10" y="8" width="28" height="24" rx="2"/>
      <line x1="10" y1="13" x2="5" y2="13"/>
      <line x1="10" y1="20" x2="5" y2="20"/>
      <line x1="10" y1="27" x2="5" y2="27"/>
      <line x1="38" y1="13" x2="43" y2="13"/>
      <line x1="38" y1="20" x2="43" y2="20"/>
      <line x1="38" y1="27" x2="43" y2="27"/>
      <circle cx="16" cy="14" r="1.5"/>
    </g>
    <g transform="translate(248 18)">
      <circle cx="18" cy="18" r="11"/>
      <circle cx="18" cy="18" r="4.5"/>
      <path d="M10.5 10.5 25.5 25.5"/>
    </g>
    <g transform="translate(312 70)">
      <polygon points="16 4 28 11 28 25 16 32 4 25 4 11"/>
      <circle cx="16" cy="18" r="5"/>
    </g>
    <g transform="translate(28 90)">
      <path d="M8 9h14c5 0 9 4 9 9s-4 9-9 9H8"/>
      <line x1="8" y1="14" x2="2" y2="14"/>
      <line x1="8" y1="22" x2="2" y2="22"/>
    </g>
    <g transform="translate(122 100)">
      <rect x="4" y="4" width="28" height="36"/>
      <ellipse cx="18" cy="22" rx="8" ry="18"/>
    </g>
    <g transform="translate(258 98)">
      <line x1="12" y1="3" x2="12" y2="35"/>
      <line x1="22" y1="3" x2="22" y2="35"/>
      <line x1="6" y1="19" x2="28" y2="19"/>
    </g>
    <g transform="translate(314 146)">
      <rect x="4" y="4" width="34" height="34" rx="4"/>
      <rect x="10" y="10" width="8" height="8"/>
      <rect x="22" y="10" width="4" height="4"/>
      <rect x="22" y="18" width="10" height="10"/>
      <rect x="12" y="24" width="6" height="6"/>
    </g>
    <g transform="translate(120 168)">
      <path d="M4 18h16l6-8h16"/>
      <path d="M40 18h16l4 6"/>
      <rect x="20" y="13" width="20" height="10" rx="1"/>
      <circle cx="10" cy="18" r="4"/>
    </g>
    <g transform="translate(30 212)">
      <rect x="8" y="10" width="30" height="22" rx="2"/>
      <line x1="8" y1="17" x2="2" y2="17"/>
      <line x1="8" y1="25" x2="2" y2="25"/>
      <line x1="38" y1="17" x2="44" y2="17"/>
      <line x1="38" y1="25" x2="44" y2="25"/>
      <circle cx="14" cy="16" r="2"/>
    </g>
    <g transform="translate(138 236)">
      <rect x="4" y="8" width="40" height="26" rx="3"/>
      <line x1="12" y1="2" x2="12" y2="8"/>
      <line x1="20" y1="2" x2="20" y2="8"/>
      <line x1="28" y1="2" x2="28" y2="8"/>
      <line x1="36" y1="2" x2="36" y2="8"/>
      <line x1="12" y1="34" x2="12" y2="40"/>
      <line x1="20" y1="34" x2="20" y2="40"/>
      <line x1="28" y1="34" x2="28" y2="40"/>
      <line x1="36" y1="34" x2="36" y2="40"/>
      <circle cx="16" cy="16" r="2"/>
      <path d="M22 15h14M22 21h10"/>
    </g>
    <g transform="translate(258 228)">
      <path d="M10 22c0-8 6-14 14-14s14 6 14 14"/>
      <path d="M16 22V10M32 22V10"/>
      <path d="M22 8h4"/>
    </g>
    <g transform="translate(312 266)">
      <line x1="6" y1="16" x2="30" y2="16"/>
      <line x1="18" y1="4" x2="18" y2="28"/>
      <circle cx="18" cy="16" r="2"/>
    </g>
  </g>
</svg>
