<svg xmlns="http://www.w3.org/2000/svg" viewBox="0 0 100 100" fill="none">
  <rect x="22" y="0" width="8" height="5" fill="#1d4ed8"/>
  <rect x="42" y="0" width="8" height="5" fill="#1d4ed8"/>
  <rect x="62" y="0" width="8" height="5" fill="#1d4ed8"/>
  <rect x="18" y="5" width="56" height="6" rx="1" fill="#1d4ed8"/>
  <rect x="18" y="5" width="6" height="28" rx="1" fill="#1d4ed8"/>
  <rect x="18" y="47" width="56" height="6" rx="1" fill="#ea580c"/>
  <rect x="68" y="47" width="6" height="28" rx="1" fill="#1d4ed8"/>
  <rect x="18" y="89" width="56" height="6" rx="1" fill="#1d4ed8"/>
  <rect x="22" y="95" width="8" height="5" fill="#1d4ed8"/>
  <rect x="42" y="95" width="8" height="5" fill="#1d4ed8"/>
  <rect x="62" y="95" width="8" height="5" fill="#1d4ed8"/>
  <rect x="12" y="14" width="6" height="6" fill="#1d4ed8"/>
  <rect x="12" y="26" width="6" height="6" fill="#1d4ed8"/>
  <rect x="74" y="62" width="6" height="6" fill="#1d4ed8"/>
  <rect x="74" y="74" width="6" height="6" fill="#1d4ed8"/>
  <circle cx="74" cy="8" r="4" fill="#1d4ed8"/>
  <circle cx="18" cy="92" r="4" fill="#1d4ed8"/>
</svg>
